# xmcd
#
# Track frame offsets:
#	183
#	11040
#	22395
#	37015
#	47625
#	66530
#	77610
#	97153
#	115220
#	122685
#	137748
#
# Disc length: 2366
#
# Revision: 1
# Processed by: cddbd v1.5.1PL0 Copyright (c) Steve Scherf et al.
# Submitted via: dBpowerAMP V4.0
# Normalized: r0:TDELIM( - )
#
DISCID=9f093c0b
DTITLE=Various Artist - Country Classics - Vol1
DYEAR=1900
DGENRE=Country
TTITLE0=Stella Parton - Danger Of A Stranger
TTITLE1=Nitty Gritty Dirt Band - High Horse
TTITLE2=Lynn Anderson - Cry
TTITLE3=Bellamy Brothers - Let Your Love Flow
TTITLE4=Tanya Tucker - Delta Dawn
TTITLE5=Tammy Wynette - D.I.V.O.R.C.E
TTITLE6=Jeannie C Riley - Harper Valley P.T.A
TTITLE7=Hoyt Axton - Wild Bull Rider
TTITLE8=Johnny Tilotson - Heartaches By The Number
TTITLE9=Tammy Wynette - Crying In The Rain
TTITLE10=Boxcar Willie Medley - Cold Cold Heart-Take These Chains
EXTD=Country Classics - Vol 1\n - The Collection - No. - OS0050\nObject Enterprises Ltd\n
EXTT0=
EXTT1=
EXTT2=
EXTT3=
EXTT4=
EXTT5=
EXTT6=
EXTT7=
EXTT8=
EXTT9=
EXTT10=
PLAYORDER=
